<svg width="26" height="24" viewBox="0 0 26 24" fill="none" xmlns="http://www.w3.org/2000/svg">
<g clip-path="url(#clip0_270_26073)">
<path fill-rule="evenodd" clip-rule="evenodd" d="M7.31245 1.50012C7.09696 1.50012 6.8903 1.57914 6.73793 1.71979C6.58555 1.86044 6.49995 2.05121 6.49995 2.25012L6.49995 19.9396L1.3877 15.2191C1.23514 15.0783 1.02821 14.9992 0.812452 14.9992C0.596691 14.9992 0.389768 15.0783 0.237202 15.2191C0.084636 15.36 -0.00107397 15.551 -0.00107398 15.7501C-0.001074 15.9493 0.084636 16.1403 0.237202 16.2811L6.7372 22.2811C6.81268 22.351 6.90234 22.4064 7.00105 22.4442C7.09976 22.482 7.20558 22.5015 7.31245 22.5015C7.41932 22.5015 7.52514 22.482 7.62386 22.4442C7.72257 22.4064 7.81223 22.351 7.8877 22.2811L14.3877 16.2811C14.5403 16.1403 14.626 15.9493 14.626 15.7501C14.626 15.551 14.5403 15.36 14.3877 15.2191C14.2351 15.0783 14.0282 14.9992 13.8125 14.9992C13.5967 14.9992 13.3898 15.0783 13.2372 15.2191L8.12495 19.9396L8.12495 2.25012C8.12495 2.05121 8.03935 1.86044 7.88698 1.71979C7.7346 1.57914 7.52794 1.50012 7.31245 1.50012V1.50012ZM18.6874 22.5001C18.472 22.5001 18.2653 22.4211 18.1129 22.2805C17.9606 22.1398 17.8749 21.949 17.8749 21.7501L17.875 4.06062L12.7627 8.78112C12.6872 8.85085 12.5975 8.90617 12.4988 8.94391C12.4001 8.98164 12.2943 9.00107 12.1875 9.00107C12.0806 9.00107 11.9748 8.98164 11.8761 8.94391C11.7774 8.90617 11.6877 8.85085 11.6122 8.78112C11.5367 8.71139 11.4767 8.6286 11.4359 8.5375C11.395 8.44639 11.3739 8.34874 11.3739 8.25012C11.3739 8.1515 11.395 8.05385 11.4359 7.96274C11.4767 7.87164 11.5367 7.78885 11.6122 7.71912L18.1122 1.71912C18.1877 1.64927 18.2773 1.59386 18.376 1.55605C18.4748 1.51824 18.5806 1.49878 18.6875 1.49878C18.7943 1.49878 18.9001 1.51824 18.9989 1.55605C19.0976 1.59386 19.1872 1.64927 19.2627 1.71912L25.7627 7.71912C25.9153 7.85995 26.001 8.05096 26.001 8.25012C26.001 8.44928 25.9153 8.64029 25.7627 8.78112C25.6101 8.92195 25.4032 9.00107 25.1874 9.00107C24.9717 9.00107 24.7648 8.92195 24.6122 8.78112L19.5 4.06062L19.4999 21.7501C19.4999 21.949 19.4143 22.1398 19.262 22.2805C19.1096 22.4211 18.9029 22.5001 18.6874 22.5001Z" fill="#02AEE9"/>
</g>
<defs>
<clipPath id="clip0_270_26073">
<rect width="24" height="26" fill="white" transform="translate(26) rotate(90)"/>
</clipPath>
</defs>
</svg>
