<svg width="14" height="16" viewBox="0 0 14 16" fill="none" xmlns="http://www.w3.org/2000/svg">
<path d="M8.47015 3.53007C8.61078 3.67052 8.8014 3.74941 9.00015 3.74941C9.1989 3.74941 9.38953 3.67052 9.53015 3.53007L10.2502 2.81007V13.0001C10.2502 13.199 10.3292 13.3898 10.4698 13.5304C10.6105 13.6711 10.8012 13.7501 11.0002 13.7501C11.1991 13.7501 11.3898 13.6711 11.5305 13.5304C11.6711 13.3898 11.7502 13.199 11.7502 13.0001V2.81007L12.4702 3.53007C12.5388 3.60376 12.6216 3.66286 12.7136 3.70385C12.8056 3.74485 12.9049 3.76689 13.0056 3.76866C13.1063 3.77044 13.2064 3.75192 13.2998 3.7142C13.3931 3.67647 13.478 3.62033 13.5492 3.54911C13.6204 3.47789 13.6766 3.39306 13.7143 3.29967C13.752 3.20628 13.7705 3.10625 13.7687 3.00555C13.767 2.90485 13.7449 2.80553 13.7039 2.71353C13.6629 2.62154 13.6038 2.53873 13.5302 2.47007L11.5302 0.470072C11.3895 0.329622 11.1989 0.250732 11.0002 0.250732C10.8014 0.250732 10.6108 0.329622 10.4702 0.470072L8.47015 2.47007C8.3297 2.6107 8.25081 2.80132 8.25081 3.00007C8.25081 3.19882 8.3297 3.38945 8.47015 3.53007ZM3.75015 13.1901L4.47015 12.4701C4.53882 12.3964 4.62162 12.3373 4.71362 12.2963C4.80561 12.2553 4.90493 12.2333 5.00563 12.2315C5.10633 12.2297 5.20636 12.2482 5.29975 12.2859C5.39314 12.3237 5.47797 12.3798 5.54919 12.451C5.62041 12.5223 5.67656 12.6071 5.71428 12.7005C5.752 12.7939 5.77052 12.8939 5.76875 12.9946C5.76697 13.0953 5.74493 13.1946 5.70393 13.2866C5.66294 13.3786 5.60384 13.4614 5.53015 13.5301L3.53015 15.5301C3.38953 15.6705 3.1989 15.7494 3.00015 15.7494C2.8014 15.7494 2.61078 15.6705 2.47015 15.5301L0.470153 13.5301C0.396466 13.4614 0.337364 13.3786 0.296372 13.2866C0.25538 13.1946 0.233339 13.0953 0.231562 12.9946C0.229785 12.8939 0.24831 12.7939 0.286031 12.7005C0.323752 12.6071 0.379896 12.5223 0.451115 12.451C0.522334 12.3798 0.607168 12.3237 0.700556 12.2859C0.793944 12.2482 0.893973 12.2297 0.994676 12.2315C1.09538 12.2333 1.19469 12.2553 1.28669 12.2963C1.37869 12.3373 1.46149 12.3964 1.53015 12.4701L2.25015 13.1901V3.00007C2.25015 2.80116 2.32917 2.61039 2.46982 2.46974C2.61048 2.32909 2.80124 2.25007 3.00015 2.25007C3.19907 2.25007 3.38983 2.32909 3.53048 2.46974C3.67114 2.61039 3.75015 2.80116 3.75015 3.00007V13.1901Z" fill="#151E29"/>
</svg>
