<svg width="31" height="32" viewBox="0 0 31 32" fill="none" xmlns="http://www.w3.org/2000/svg">
<g clip-path="url(#clip0_84_2713)">
<mask id="mask0_84_2713" style="mask-type:alpha" maskUnits="userSpaceOnUse" x="0" y="6" width="31" height="19">
<path d="M13.4234 24.7782C12.8313 25.0747 12.1075 24.8771 11.8112 24.2841C11.5152 23.7241 11.7453 22.9992 12.3377 22.7027C12.9298 22.4063 25.9585 16.937 25.9585 16.937C25.9585 16.937 14.0156 24.4819 13.4234 24.7784L13.4234 24.7782Z" fill="black"/>
<path d="M21.8461 12.4231L23.8858 9.32605C21.3855 7.74465 18.556 6.78931 15.2659 6.78931V9.95234C17.5689 10.2488 19.9049 11.1054 21.846 12.4231H21.8461Z" fill="black"/>
<path d="M27.505 19.1772L30.8279 18.6172C29.775 15.0589 27.6037 11.9619 24.6755 9.85327L22.6357 12.9503C24.7414 14.5648 26.4192 16.7063 27.505 19.1773L27.505 19.1772Z" fill="black"/>
<path d="M7.0408 11.2369L6.05372 9.72119C3.29012 11.665 1.15164 14.4325 0 17.6944C1.61219 14.8609 4.07974 12.5875 7.04074 11.2368L7.0408 11.2369Z" fill="black"/>
<path d="M13.3578 9.82028C13.6869 9.82028 13.9499 9.82028 14.279 9.85315V6.82202C11.6469 6.9868 9.01477 7.81049 6.81055 9.19421L7.86349 10.8416C9.57438 10.1827 11.4168 9.82026 13.3579 9.82026L13.3578 9.82028Z" fill="black"/>
</mask>
<g mask="url(#mask0_84_2713)">
<rect x="-1.93604" y="5.3811" width="36.4332" height="20.4167" fill="url(#paint0_linear_84_2713)"/>
</g>
</g>
<defs>
<linearGradient id="paint0_linear_84_2713" x1="-4.05332" y1="7.93318" x2="35.4062" y2="8.54968" gradientUnits="userSpaceOnUse">
<stop stop-color="#1CCFF9"/>
<stop offset="1" stop-color="#212868"/>
</linearGradient>
<clipPath id="clip0_84_2713">
<rect width="30.801" height="30.801" fill="white" transform="translate(0 0.452881)"/>
</clipPath>
</defs>
</svg>
